# AST/ASF file generated using VICON BodyLanguage
# -----------------------------------------------
:version 1.10
:name VICON
:units
  mass 1.0
  length 0.45
  angle deg
:documentation
   .ast/.asf automatically generated from VICON data using
   VICON BodyBuilder and BodyLanguage model FoxedUp or BRILLIANT.MOD
:root
   order TX TY TZ RX RY RZ
   axis XYZ
   position 0 0 0  
   orientation 0 0 0 
:bonedata
  begin
     id 1 
     name lhipjoint
     direction 0.603808 -0.713975 0.35448 
     length 2.2025 
     axis 0 0 0  XYZ
  end
  begin
     id 2 
     name lfemur
     direction 0.34202 -0.939693 0  
     length 6.55877  
     axis 0 0 20  XYZ
    dof rx ry rz
    limits (-160.0 20.0)
           (-70.0 70.0)
           (-60.0 70.0)
  end
  begin
     id 3 
     name ltibia
     direction 0.34202 -0.939693 0   
     length 6.80302   
     axis 0 0 20   XYZ
    dof rx
    limits (-10.0 170.0)
  end
  begin
     id 4 
     name lfoot
     direction 0.091848 -0.25235 0.963267   
     length 2.03446   
     axis -90 7.62852e-016 20   XYZ
    dof rx rz
    limits (-45.0 90.0)
           (-70.0 20.0)
  end
  begin
     id 5 
     name ltoes
     direction 1.53608e-011 -4.21925e-011 1   
     length 1.02033   
     axis -90 7.62852e-016 20   XYZ
    dof rx
    limits (-90.0 20.0)
  end
  begin
     id 6 
     name rhipjoint
     direction -0.587285 -0.724947 0.359928   
     length 2.16916  
     axis 0 0 0  XYZ 
  end
  begin
     id 7 
     name rfemur
     direction -0.34202 -0.939693 0   
     length 6.43173   
     axis 0 0 -20   XYZ
    dof rx ry rz
    limits (-160.0 20.0)
           (-70.0 70.0)
           (-70.0 60.0)
  end
  begin
     id 8 
     name rtibia
     direction -0.34202 -0.939693 0   
     length 6.70662   
     axis 0 0 -20   XYZ
    dof rx
    limits (-10.0 170.0)
 end
 begin
     id 9 
     name rfoot
     direction -0.11854 -0.325686 0.938018   
     length 2.0773  
     axis -90 -7.62852e-016 -20   XYZ
    dof rx rz
    limits (-45.0 90.0)
           (-20.0 70.0)
  end
  begin
     id 10 
     name rtoes
     direction -1.53547e-011 -4.21838e-011 1   
     length 1.03267   
     axis -90 -7.62852e-016 -20   XYZ
    dof rx
    limits (-90.0 20.0)
  end
  begin
     id 11 
     name lowerback
     direction -0.0286554 0.999539 0.0100613   
     length 2.08751   
     axis 0 0 0   XYZ
    dof rx ry rz
    limits (-20.0 45.0)
           (-30.0 30.0)
           (-30.0 30.0)
  end
  begin
     id 12 
     name upperback
     direction 0.0227093 0.999705 -0.00860929   
     length 2.08517   
     axis 0 0 0   XYZ
    dof rx ry rz
    limits (-20.0 45.0)
           (-30.0 30.0)
           (-30.0 30.0)
  end
  begin
     id 13 
     name thorax
     direction 0.0351627 0.999285 -0.013892   
     length 2.08412   
     axis 0 0 0   XYZ
    dof rx ry rz
    limits (-20.0 45.0)
           (-30.0 30.0)
           (-30.0 30.0)
  end
  begin
     id 14 
     name lowerneck
     direction -0.0696283 0.997344 0.0213922   
     length 1.44164   
     axis 0 0 0   XYZ
    dof rx ry rz
    limits (-20.0 45.0)
           (-30.0 30.0)
           (-30.0 30.0)
  end
  begin
     id 15 
     name upperneck
     direction 0.0531 0.990412 -0.127531   
     length 1.45022   
     axis 0 0 0   XYZ
    dof rx ry rz
    limits (-20.0 45.0)
           (-30.0 30.0)
           (-30.0 30.0)
  end
  begin
     id 16
     name head
     direction 0.0188154 0.998548 -0.0504727  
     length 1.45845  
     axis 0 0 0   XYZ
    dof rx ry rz
    limits (-20.0 45.0)
           (-30.0 30.0)
           (-30.0 30.0)
  end
  begin
     id 17 
     name lclavicle
     direction 0.961559 0.260051 0.088188  
     length 2.86057  
     axis 0 0 0   XYZ
    dof ry rz
    limits (-20.0 10.0)
           (0.0 20.0)
  end
  begin
     id 18 
     name lhumerus
     direction 1 -4.48959e-011 2.88185e-027   
     length 4.36901   
     axis 180 -30 -90   XYZ
    dof rx ry rz
    limits (-60.0 90.0)
           (-90.0 90.0)
           (-90.0 90.0)
  end
  begin
     id 19
     name lradius
     direction 1 -4.48965e-011 -3.92618e-028   
     length 3.21737   
     axis 180 -30 -90   XYZ
    dof rx
    limits (-10.0 170.0)
  end
  begin
     id 20
     name lwrist
     direction 1 -4.49037e-011 2.57246e-027   
     length 1.60869   
     axis -1.61769e-015 90 90   XYZ
    dof ry
    limits (-180.0 0.0)
 end
  begin
     id 21 
     name lhand
     direction 1 -4.48807e-011 5.12958e-027   
     length 0.564313   
     axis -3.27988e-015 90 90   XYZ
    dof rx rz
    limits (-90.0 90.0)
           (-45.0 45.0)
  end
  begin
     id 22 
     name lfingers
     direction 1 -4.48879e-011 1.02687e-026   
     length 0.454963   
     axis -6.5598e-015 90 90   XYZ
    dof rx
    limits (0.0 90.0)
  end
  begin
     id 23
     name lthumb
     direction 0.707107 -6.3475e-011 0.707107   
     length 0.653239   
     axis -90 45 2.19363e-014   XYZ
    dof rx rz
    limits (-45.0 45.0)
           (-45.0 45.0)
  end
  begin
     id 24 
     name rclavicle
     direction -0.954677 0.253915 0.155304   
     length 3.11497  
     axis 0 0 0   XYZ 
    dof ry rz
    limits (-10.0 20.0)
           (-20.0 0.0)
  end
  begin
     id 25 
     name rhumerus
     direction -1 -4.48958e-011 -8.20169e-028  
     length 4.34118   
     axis 180 30 90   XYZ
    dof rx ry rz
    limits (-90.0 60.0)
           (-90.0 90.0)
           (-90.0 90.0)
  end
  begin
     id 26 
     name rradius
     direction -1 -4.48978e-011 1.5676e-027   
     length 3.09531   
     axis 180 30 90   XYZ
    dof rx
    limits (-10.0 170.0)
  end
  begin
     id 27 
     name rwrist
     direction -1 -4.49001e-011 2.57123e-027   
     length 1.54765   
     axis -1.61769e-015 -90 -90   XYZ
    dof ry
    limits (-180.0 0.0)
  end
  begin
     id 28
     name rhand
     direction -1 -4.48847e-011 5.13225e-027   
     length 0.597446   
     axis -3.27988e-015 -90 -90   XYZ
    dof rx rz
    limits (-90.0 90.0)
           (-45.0 45.0)
  end
  begin
     id 29
     name rfingers
     direction -1 -4.49094e-011 1.02974e-026   
     length 0.481677   
     axis -6.5598e-015 -90 -90   XYZ
    dof rx
    limits (0.0 90.0)
  end
  begin
     id 30
     name rthumb
     direction -0.707107 -6.34859e-011 0.707107   
     length 0.691594   
     axis -90 -45 -2.19363e-014   XYZ
    dof rx rz
    limits (-45.0 45.0)
           (-45.0 45.0)
  end
:hierarchy
  begin
    root lhipjoint rhipjoint lowerback
    lhipjoint lfemur
    lfemur ltibia
    ltibia lfoot
    lfoot ltoes
    rhipjoint rfemur
    rfemur rtibia
    rtibia rfoot
    rfoot rtoes
    lowerback upperback
    upperback thorax
    thorax lowerneck lclavicle rclavicle
    lowerneck upperneck
    upperneck head
    lclavicle lhumerus
    lhumerus lradius
    lradius lwrist
    lwrist lhand lthumb
    lhand lfingers
    rclavicle rhumerus
    rhumerus rradius
    rradius rwrist
    rwrist rhand rthumb
    rhand rfingers
  end

#!OML:ASF I:\Acrobat_Osman\acrobat\cartwheel_test 2\Patient 1\Session 1\acrobat.ASF
:FULLY-SPECIFIED
:DEGREES
17
root 9.6236 15.8806 -0.557617 -92.5577 -86.2155 101.477
lowerback -6.66588 0.695143 -1.11839
upperback -1.14609 0.948653 1.04476
thorax 2.51814 0.449036 1.78674
lowerneck -7.31858 3.8347 1.99171
upperneck 8.3685 5.82864 -10.313
head 4.07138 2.36492 -3.14582
rclavicle -1.19768e-014 -2.06736e-014
rhumerus -48.162 -24.375 -51.4271
rradius 32.9565
rwrist -5.37406
rhand -19.8239 24.3082
rfingers 7.12502
rthumb 6.50982 -5.57172
lclavicle -1.19768e-014 -2.06736e-014
lhumerus -44.0248 -7.03239 84.9545
lradius 37.6725
lwrist 26.0318
lhand -15.9351 55.5856
lfingers 7.12502
lthumb 10.2628 85.3152
rfemur -9.91049 22.2322 7.79214
rtibia 19.5599
rfoot -30.0739 -37.675
rtoes 4.21943
lfemur -10.355 -5.66682 -15.6872
ltibia 22.3405
lfoot -14.9335 37.8477
ltoes -8.27016
18
root 9.63479 15.887 -0.557277 -93.6366 -86.267 102.579
lowerback -6.62851 0.465033 -1.01547
upperback -1.18453 0.629476 1.18509
thorax 2.46956 0.290424 1.84535
lowerneck -6.95693 4.08985 1.9844
upperneck 8.03005 6.15507 -10.4964
head 3.93516 2.53675 -3.18709
rclavicle -5.06901e-015 -7.15625e-015
rhumerus -48.5374 -24.3562 -50.8257
rradius 32.5403
rwrist -5.38707
rhand -19.4994 24.4023
rfingers 7.12502
rthumb 6.8231 -5.46776
lclavicle -5.06901e-015 -7.15625e-015
lhumerus -44.3292 -10.4289 88.7457
lradius 38.647
lwrist 25.5094
lhand -15.137 55.6302
lfingers 7.12502
lthumb 11.0326 85.3203
rfemur -10.042 21.479 7.77896
rtibia 19.5395
rfoot -29.4004 -37.0084
rtoes 4.06239
lfemur -10.3826 -6.00569 -15.6118
ltibia 22.303
lfoot -15.357 38.0927
ltoes -7.38641
19
root 9.64944 15.892 -0.555537 -94.4032 -86.3069 103.365
lowerback -6.53461 0.173722 -0.876976
upperback -1.24681 0.226381 1.32174
thorax 2.36877 0.0905867 1.8729
lowerneck -6.61592 4.41484 2.01924
upperneck 7.74202 6.57681 -10.6993
head 3.82675 2.75412 -3.23596
rclavicle 9.93923e-016 9.54166e-015
rhumerus -48.9541 -24.6305 -49.8674
rradius 32.0976
rwrist -4.7539
rhand -19.1562 24.3096
rfingers 7.12502
rthumb 7.1544 -5.54944
lclavicle 9.93923e-016 9.54166e-015
lhumerus -44.6497 -13.5828 92.4154
lradius 39.9126
lwrist 24.984
lhand -13.3862 55.3393
lfingers 7.12502
lthumb 12.7209 84.9318
rfemur -10.2289 20.4859 7.77813
rtibia 19.5584
rfoot -28.2696 -36.421
rtoes 3.08808
lfemur -10.4136 -6.28338 -15.5548
ltibia 22.2267
lfoot -15.5602 38.3051
ltoes -7.14062
20
root 9.66288 15.8954 -0.553534 -96.582 -86.2942 105.522
lowerback -6.43594 0.0402452 -0.675235
upperback -1.21264 0.0372655 1.26294
thorax 2.35656 -0.00172609 1.68247
lowerneck -6.73854 4.62847 2.48052
upperneck 7.70308 6.83427 -10.8188
head 3.87184 2.88862 -3.32888
rclavicle 3.62782e-015 -1.51076e-014
rhumerus -49.6977 -25.1614 -48.9829
rradius 31.9459
rwrist -4.31846
rhand -19.1275 23.9867
rfingers 7.12502
rthumb 7.18212 -5.87147
lclavicle 3.62782e-015 -1.51076e-014
lhumerus -44.6319 -16.994 95.7561
lradius 41.2534
lwrist 24.4812
lhand -11.8774 53.9887
lfingers 7.12502
lthumb 14.1752 83.4851
rfemur -10.3855 19.6165 7.74437
rtibia 19.5894
rfoot -27.1345 -35.799
rtoes 2.06287
lfemur -10.3649 -6.21491 -15.5687
ltibia 22.1413
lfoot -15.3735 38.4301
ltoes -7.44308
21
root 9.67629 15.8984 -0.56198 -99.6492 -86.2513 108.493
lowerback -6.31009 -0.159414 -0.63116
upperback -1.13352 -0.229198 1.23265
thorax 2.37667 -0.133776 1.60427
lowerneck -6.91097 4.87067 2.8872
upperneck 7.68984 7.12669 -10.8091
head 3.93031 3.04306 -3.36913
rclavicle 2.03754e-015 -1.82882e-014
rhumerus -50.3158 -25.3093 -48.3481
rradius 31.8901
rwrist -4.43768
rhand -19.6596 23.955
rfingers 7.12502
rthumb 6.66842 -5.92004
lclavicle 2.03754e-015 -1.82882e-014
lhumerus -44.2493 -20.3312 98.5822
lradius 42.5258
lwrist 23.8201
lhand -10.8434 52.6288
lfingers 7.12502
lthumb 15.1714 82.0526
rfemur -10.4207 19.3384 7.73872
rtibia 19.6232
rfoot -26.6993 -35.2966
rtoes 1.93425
lfemur -10.22 -5.81529 -15.5537
ltibia 22.0638
lfoot -14.98 38.35
ltoes -7.87077
22
root 9.69199 15.9007 -0.576654 -103.173 -86.3087 111.948
lowerback -6.20773 -0.518557 -0.664372
upperback -1.10082 -0.710471 1.41103
thorax 2.37156 -0.374747 1.76759
lowerneck -6.78255 5.19556 2.96906
upperneck 7.51988 7.54208 -10.7839
head 3.88892 3.26137 -3.35088
rclavicle -1.42131e-014 6.36111e-015
rhumerus -50.6954 -25.1918 -47.5344
rradius 31.8124
rwrist -4.64925
rhand -20.2614 24.1439
rfingers 7.12502
rthumb 6.08742 -5.74865
lclavicle -1.42131e-014 6.36111e-015
lhumerus -43.7379 -23.4243 101.173
lradius 43.9712
lwrist 23.8607
lhand -11.952 53.598
lfingers 7.12502
lthumb 14.1033 83.0994
rfemur -10.5003 19.2852 7.88797
rtibia 19.691
rfoot -26.718 -34.8922
rtoes 2.58044
lfemur -10.1012 -5.30366 -15.3614
ltibia 21.968
lfoot -14.5861 38.1224
ltoes -8.36831
